<mxfile host="app.diagrams.net" agent="Mozilla/5.0 (Windows NT 10.0; Win64; x64) AppleWebKit/537.36 (KHTML, like Gecko) Chrome/135.0.0.0 Safari/537.36" version="26.2.14">
  <diagram name="Strona-1" id="ewz0LoVbVwpOwkjK7CDp">
    <mxGraphModel dx="1042" dy="594" grid="1" gridSize="10" guides="1" tooltips="1" connect="1" arrows="1" fold="1" page="1" pageScale="1" pageWidth="827" pageHeight="1169" math="0" shadow="0">
      <root>
        <mxCell id="0" />
        <mxCell id="1" parent="0" />
        <mxCell id="y5_pWlO5AVtp5MsKN3KH-1" value="&amp;laquo;Annotation&amp;raquo;&lt;br/&gt;&lt;b&gt;Component&lt;/b&gt;" style="html=1;dropTarget=0;whiteSpace=wrap;" parent="1" vertex="1">
          <mxGeometry x="40" y="30" width="180" height="90" as="geometry" />
        </mxCell>
        <mxCell id="y5_pWlO5AVtp5MsKN3KH-2" value="" style="shape=module;jettyWidth=8;jettyHeight=4;" parent="y5_pWlO5AVtp5MsKN3KH-1" vertex="1">
          <mxGeometry x="1" width="20" height="20" relative="1" as="geometry">
            <mxPoint x="-27" y="7" as="offset" />
          </mxGeometry>
        </mxCell>
        <mxCell id="y5_pWlO5AVtp5MsKN3KH-3" value="Komponent" style="text;html=1;align=center;verticalAlign=middle;resizable=0;points=[];autosize=1;strokeColor=none;fillColor=none;" parent="1" vertex="1">
          <mxGeometry x="240" y="58" width="80" height="30" as="geometry" />
        </mxCell>
        <mxCell id="y5_pWlO5AVtp5MsKN3KH-4" value="Module" style="shape=module;align=left;spacingLeft=20;align=center;verticalAlign=top;whiteSpace=wrap;html=1;" parent="1" vertex="1">
          <mxGeometry x="40" y="140" width="180" height="80" as="geometry" />
        </mxCell>
        <mxCell id="y5_pWlO5AVtp5MsKN3KH-5" value="" style="rounded=0;orthogonalLoop=1;jettySize=auto;html=1;endArrow=halfCircle;endFill=0;endSize=6;strokeWidth=1;sketch=0;fontSize=12;curved=1;" parent="1" edge="1">
          <mxGeometry relative="1" as="geometry">
            <mxPoint x="155" y="320" as="sourcePoint" />
            <mxPoint x="110" y="320" as="targetPoint" />
          </mxGeometry>
        </mxCell>
        <mxCell id="y5_pWlO5AVtp5MsKN3KH-6" value="" style="ellipse;whiteSpace=wrap;html=1;align=center;aspect=fixed;fillColor=none;strokeColor=none;resizable=0;perimeter=centerPerimeter;rotatable=0;allowArrows=0;points=[];outlineConnect=1;" parent="1" vertex="1">
          <mxGeometry x="70" y="270" width="10" height="10" as="geometry" />
        </mxCell>
        <mxCell id="y5_pWlO5AVtp5MsKN3KH-7" value="" style="html=1;verticalAlign=bottom;labelBackgroundColor=none;endArrow=oval;endFill=0;endSize=8;rounded=0;" parent="1" edge="1">
          <mxGeometry width="160" relative="1" as="geometry">
            <mxPoint x="50" y="260" as="sourcePoint" />
            <mxPoint x="210" y="260" as="targetPoint" />
          </mxGeometry>
        </mxCell>
        <mxCell id="y5_pWlO5AVtp5MsKN3KH-8" value="wymagany" style="text;html=1;align=center;verticalAlign=middle;resizable=0;points=[];autosize=1;strokeColor=none;fillColor=none;" parent="1" vertex="1">
          <mxGeometry x="240" y="310" width="80" height="30" as="geometry" />
        </mxCell>
        <mxCell id="y5_pWlO5AVtp5MsKN3KH-9" value="zaimplementowany" style="text;html=1;align=center;verticalAlign=middle;resizable=0;points=[];autosize=1;strokeColor=none;fillColor=none;" parent="1" vertex="1">
          <mxGeometry x="215" y="240" width="130" height="30" as="geometry" />
        </mxCell>
        <mxCell id="y5_pWlO5AVtp5MsKN3KH-10" value="&amp;lt;&amp;lt; exe &amp;gt;&amp;gt;" style="text;html=1;align=center;verticalAlign=middle;resizable=0;points=[];autosize=1;strokeColor=none;fillColor=none;" parent="1" vertex="1">
          <mxGeometry x="20" y="378" width="80" height="30" as="geometry" />
        </mxCell>
        <mxCell id="y5_pWlO5AVtp5MsKN3KH-11" value="&amp;lt;&amp;lt; doc &amp;gt;&amp;gt;" style="text;html=1;align=center;verticalAlign=middle;resizable=0;points=[];autosize=1;strokeColor=none;fillColor=none;" parent="1" vertex="1">
          <mxGeometry x="20" y="408" width="80" height="30" as="geometry" />
        </mxCell>
        <mxCell id="y5_pWlO5AVtp5MsKN3KH-12" value="&amp;lt;&amp;lt; file &amp;gt;&amp;gt;" style="text;html=1;align=center;verticalAlign=middle;resizable=0;points=[];autosize=1;strokeColor=none;fillColor=none;" parent="1" vertex="1">
          <mxGeometry x="25" y="438" width="70" height="30" as="geometry" />
        </mxCell>
        <mxCell id="y5_pWlO5AVtp5MsKN3KH-13" value="&amp;lt;&amp;lt; library &amp;gt;&amp;gt;" style="text;html=1;align=center;verticalAlign=middle;resizable=0;points=[];autosize=1;strokeColor=none;fillColor=none;" parent="1" vertex="1">
          <mxGeometry x="115" y="378" width="90" height="30" as="geometry" />
        </mxCell>
        <mxCell id="y5_pWlO5AVtp5MsKN3KH-14" value="&amp;lt;&amp;lt; page &amp;gt;&amp;gt;" style="text;html=1;align=center;verticalAlign=middle;resizable=0;points=[];autosize=1;strokeColor=none;fillColor=none;" parent="1" vertex="1">
          <mxGeometry x="120" y="408" width="80" height="30" as="geometry" />
        </mxCell>
        <mxCell id="y5_pWlO5AVtp5MsKN3KH-15" value="&amp;lt;&amp;lt; table &amp;gt;&amp;gt;" style="text;html=1;align=center;verticalAlign=middle;resizable=0;points=[];autosize=1;strokeColor=none;fillColor=none;" parent="1" vertex="1">
          <mxGeometry x="120" y="438" width="80" height="30" as="geometry" />
        </mxCell>
        <mxCell id="7tsTuerC6Hy-eDM_FtL0-1" value="Nazwa węzła" style="verticalAlign=top;align=left;spacingTop=8;spacingLeft=2;spacingRight=12;shape=cube;size=10;direction=south;fontStyle=4;html=1;whiteSpace=wrap;" vertex="1" parent="1">
          <mxGeometry x="500" y="50" width="180" height="120" as="geometry" />
        </mxCell>
        <mxCell id="7tsTuerC6Hy-eDM_FtL0-2" value="" style="endArrow=none;html=1;rounded=0;" edge="1" parent="1">
          <mxGeometry width="50" height="50" relative="1" as="geometry">
            <mxPoint x="510" y="240" as="sourcePoint" />
            <mxPoint x="630" y="240" as="targetPoint" />
          </mxGeometry>
        </mxCell>
        <mxCell id="7tsTuerC6Hy-eDM_FtL0-3" value="" style="endArrow=classic;html=1;rounded=0;" edge="1" parent="1">
          <mxGeometry width="50" height="50" relative="1" as="geometry">
            <mxPoint x="510" y="300" as="sourcePoint" />
            <mxPoint x="640" y="290" as="targetPoint" />
          </mxGeometry>
        </mxCell>
        <mxCell id="7tsTuerC6Hy-eDM_FtL0-4" value="&amp;lt;&amp;lt;?&amp;gt;&amp;gt;" style="text;html=1;align=center;verticalAlign=middle;whiteSpace=wrap;rounded=0;" vertex="1" parent="1">
          <mxGeometry x="490" y="378" width="90" height="30" as="geometry" />
        </mxCell>
      </root>
    </mxGraphModel>
  </diagram>
</mxfile>
